<?xml version="1.0" encoding="UTF-8" standalone="no"?>
<svg
   version="1.1"
   width="612pt"
   height="612pt"
   id="svg37"
   viewBox="0 0 612 612"
   sodipodi:docname="LOGO.cdr"
   xmlns:inkscape="http://www.inkscape.org/namespaces/inkscape"
   xmlns:sodipodi="http://sodipodi.sourceforge.net/DTD/sodipodi-0.dtd"
   xmlns:xlink="http://www.w3.org/1999/xlink"
   xmlns="http://www.w3.org/2000/svg"
   xmlns:svg="http://www.w3.org/2000/svg">
  <defs
     id="defs38" />
  <sodipodi:namedview
     id="namedview37"
     pagecolor="#ffffff"
     bordercolor="#000000"
     borderopacity="0.25"
     inkscape:showpageshadow="2"
     inkscape:pageopacity="0.0"
     inkscape:pagecheckerboard="0"
     inkscape:deskcolor="#d1d1d1"
     inkscape:document-units="pt" />
  <g
     id="Layer1000">
    <defs
       id="defs2">
      <linearGradient
         id="grad1">
        <stop
           offset="0%"
           stop-color="#1a5599"
           stop-opacity="1.0000"
           id="stop1" />
        <stop
           offset="100%"
           stop-color="#0b88c8"
           stop-opacity="1.0000"
           id="stop2" />
      </linearGradient>
      <linearGradient
         xlink:href="#grad1"
         id="grad2"
         x1="0"
         y1="0"
         x2="0"
         y2="1"
         gradientTransform="rotate(134,0.5,0.5)"
         gradientUnits="objectBoundingBox" />
    </defs>
    <path
       d="m 313.6404,117.0098 -59.265,-46.809 59.265,-46.809 z"
       style="fill:url(#grad2)"
       id="path2" />
    <path
       d="M 325.104,104.0455 367.9547,70.2009 325.104,36.3563 Z"
       style="fill:#7ca636;fill-rule:evenodd"
       id="path3" />
    <path
       d="m 240.1804,239.1318 v 35.4932 l -35.1687,-29.4379 0.1728,-34.2993 z"
       style="fill:#175093;fill-rule:evenodd"
       id="path4" />
    <path
       d="m 240.1804,102.6857 v 136.1148 0.3313 l -34.9959,-28.244 v -0.0335 l 0.219,-43.4291 -21.3615,-19.0177 z"
       style="fill:#399041;fill-rule:evenodd"
       id="path5" />
    <defs
       id="defs6">
      <linearGradient
         id="grad3">
        <stop
           offset="0%"
           stop-color="#0f512d"
           stop-opacity="1.0000"
           id="stop5" />
        <stop
           offset="100%"
           stop-color="#1c7f3f"
           stop-opacity="1.0000"
           id="stop6" />
      </linearGradient>
      <linearGradient
         xlink:href="#grad3"
         id="grad4"
         x1="0"
         y1="0"
         x2="0"
         y2="1"
         gradientUnits="objectBoundingBox" />
    </defs>
    <path
       d="m 301.5894,127.9208 0.2058,0.1669 v 0.0108 l 0.2605,71.6298 -47.1524,-34.3875 v -0.3707 -0.0812 z"
       style="fill:url(#grad4)"
       id="path6" />
    <defs
       id="defs8">
      <linearGradient
         id="grad5">
        <stop
           offset="0%"
           stop-color="#75a050"
           stop-opacity="1.0000"
           id="stop7" />
        <stop
           offset="100%"
           stop-color="#497c41"
           stop-opacity="1.0000"
           id="stop8" />
      </linearGradient>
      <linearGradient
         xlink:href="#grad5"
         id="grad6"
         x1="0"
         y1="0"
         x2="0"
         y2="1"
         gradientTransform="rotate(-70,0.5,0.5)"
         gradientUnits="objectBoundingBox" />
    </defs>
    <path
       d="m 254.9033,90.0527 46.6861,37.8681 -46.6861,36.9681 z"
       style="fill:url(#grad6)"
       id="path8" />
    <path
       d="m 301.6288,286.716 -0.0915,40.1424 -46.6316,-40.6402 0.4677,-37.1906 z"
       style="fill:#57963b;fill-rule:evenodd"
       id="path9" />
    <defs
       id="defs10">
      <linearGradient
         id="grad7">
        <stop
           offset="0%"
           stop-color="#aab444"
           stop-opacity="1.0000"
           id="stop9" />
        <stop
           offset="100%"
           stop-color="#6e923a"
           stop-opacity="1.0000"
           id="stop10" />
      </linearGradient>
      <linearGradient
         xlink:href="#grad7"
         id="grad8"
         x1="0"
         y1="0"
         x2="0"
         y2="1"
         gradientTransform="rotate(-63,0.5,0.5)"
         gradientUnits="objectBoundingBox" />
    </defs>
    <path
       d="m 301.6894,260.2329 -0.0596,26.1197 -10e-4,0.3634 -46.2554,-37.6884 5e-4,-0.0222 0.0527,-4.2082 14.7819,-10.2143 z"
       style="fill:url(#grad8)"
       id="path10" />
    <defs
       id="defs12">
      <linearGradient
         id="grad9">
        <stop
           offset="0%"
           stop-color="#cfdde0"
           stop-opacity="1.0000"
           id="stop11" />
        <stop
           offset="100%"
           stop-color="#9bb643"
           stop-opacity="1.0000"
           id="stop12" />
      </linearGradient>
      <linearGradient
         xlink:href="#grad9"
         id="grad10"
         x1="0"
         y1="0"
         x2="0"
         y2="1"
         gradientTransform="rotate(-52,0.5,0.5)"
         gradientUnits="objectBoundingBox" />
    </defs>
    <path
       d="m 301.7977,212.7541 -0.1078,47.1987 -5e-4,0.2801 -31.4809,-25.65 0.032,-0.0221 z"
       style="fill:url(#grad10)"
       id="path12" />
    <defs
       id="defs14">
      <linearGradient
         id="grad11">
        <stop
           offset="0%"
           stop-color="#117141"
           stop-opacity="1.0000"
           id="stop13" />
        <stop
           offset="100%"
           stop-color="#ffffff"
           stop-opacity="1.0000"
           id="stop14" />
      </linearGradient>
      <linearGradient
         xlink:href="#grad11"
         id="grad12"
         x1="0"
         y1="0"
         x2="0"
         y2="1"
         gradientTransform="rotate(92,0.5,0.5)"
         gradientUnits="objectBoundingBox" />
    </defs>
    <path
       d="m 321.2688,174.189 0.7198,39.3464 34.9245,-31.3179 z"
       style="fill:url(#grad12)"
       id="path14" />
    <path
       d="m 320.4349,128.6115 0.8324,45.4894 0.002,0.0881 35.6443,8.0285 0.0168,-0.0153 12.9928,-11.6513 -0.004,-0.1374 z"
       style="fill:#117141;fill-rule:evenodd"
       id="path15" />
    <defs
       id="defs16">
      <linearGradient
         id="grad13">
        <stop
           offset="0%"
           stop-color="#527030"
           stop-opacity="1.0000"
           id="stop15" />
        <stop
           offset="100%"
           stop-color="#8ea742"
           stop-opacity="1.0000"
           id="stop16" />
      </linearGradient>
      <linearGradient
         xlink:href="#grad13"
         id="grad14"
         x1="0"
         y1="0"
         x2="0"
         y2="1"
         gradientTransform="rotate(-23,0.5,0.5)"
         gradientUnits="objectBoundingBox" />
    </defs>
    <path
       d="m 367.3175,90.0527 -46.892,38.035 0.009,0.4868 5e-4,0.037 49.4834,41.802 -0.0123,-0.3825 z"
       style="fill:url(#grad14)"
       id="path16" />
    <path
       d="m 324.4624,263.5609 0.0468,-0.0404 44.6318,-38.6498 -0.2861,59.0047 -6.621,5.5999 -0.1944,0.1644 z"
       style="fill:#176b39;fill-rule:evenodd"
       id="path17" />
    <defs
       id="defs18">
      <linearGradient
         id="grad15">
        <stop
           offset="0%"
           stop-color="#23b14f"
           stop-opacity="1.0000"
           id="stop17" />
        <stop
           offset="100%"
           stop-color="#167e41"
           stop-opacity="1.0000"
           id="stop18" />
      </linearGradient>
      <linearGradient
         xlink:href="#grad15"
         id="grad16"
         x1="0"
         y1="0"
         x2="0"
         y2="1"
         gradientTransform="rotate(-94,0.5,0.5)"
         gradientUnits="objectBoundingBox" />
    </defs>
    <path
       d="m 318.6015,268.6366 5.8609,-5.0757 37.5771,26.0788 -42.0054,35.5282 z"
       style="fill:url(#grad16)"
       id="path18" />
    <path
       d="M 382.6803,102.6857 V 274.625 l 35.1688,-29.4379 -0.3919,-77.7619 21.3616,-19.0177 z"
       style="fill:#13417d;fill-rule:evenodd"
       id="path19" />
    <path
       d="m 459.658,209.0525 v 1.3563 l -32.303,26.7021 v -60.7883 z"
       style="fill:#0da2e6;fill-rule:evenodd"
       id="path20" />
    <path
       d="m 459.658,148.407 v 60.2777 0.3678 l -32.303,-32.7299 v -0.0738 -0.0975 z"
       style="fill:#0d8dd6;fill-rule:evenodd"
       id="path21" />
    <path
       d="m 165.9424,231.2539 137.0299,115.6689 0.261,87.0108 L 165.683,318.9161 Z"
       style="fill:#103875;fill-rule:evenodd"
       id="path22" />
    <defs
       id="defs23">
      <linearGradient
         id="grad17">
        <stop
           offset="0%"
           stop-color="#0aa4e4"
           stop-opacity="1.0000"
           id="stop22" />
        <stop
           offset="100%"
           stop-color="#206bac"
           stop-opacity="1.0000"
           id="stop23" />
      </linearGradient>
      <linearGradient
         xlink:href="#grad17"
         id="grad18"
         x1="0"
         y1="0"
         x2="0"
         y2="1"
         gradientTransform="rotate(-48,0.5,0.5)"
         gradientUnits="objectBoundingBox" />
    </defs>
    <path
       d="M 165.9424,231.2539 301.2965,345.5084 C 289.0559,356.188 275.4018,372.244 261.9206,359 245.7331,344.4253 188.8853,293.8012 165.8174,273.5015 Z"
       style="fill:url(#grad18)"
       id="path23" />
    <path
       d="m 288.6478,438.5598 h 42.8536 c 1.4331,0 2.6052,1.1722 2.6052,2.6053 v 5e-4 c 0,1.4331 -1.1721,2.6052 -2.6052,2.6052 h -42.8536 c -1.4331,0 -2.6053,-1.1721 -2.6053,-2.6052 v -5e-4 c 0,-1.4331 1.1722,-2.6053 2.6053,-2.6053 z"
       style="fill:#13336e;fill-rule:evenodd"
       id="path24" />
    <path
       d="m 70.2951,525.1039 v -55.9686 h 12.2283 l 25.6761,37.5077 v -37.5077 h 11.6755 v 55.9686 H 107.2553 L 81.9716,488.3126 v 36.7913 z"
       style="fill:#103875;fill-rule:evenodd"
       id="path25" />
    <path
       d="m 138.1986,525.1039 v -55.9686 h 42.6813 v 9.4582 h -31.0043 v 12.4287 h 28.8303 v 9.4586 h -28.8303 v 15.1645 h 32.1317 v 9.4586 z"
       style="fill:#103875;fill-rule:evenodd"
       id="path26" />
    <path
       d="m 196.9704,525.1039 v -55.9686 h 23.8024 c 5.98,0 10.331,0.5081 13.0411,1.5114 2.723,1.0028 4.8857,2.7879 6.5142,5.3543 1.628,2.5797 2.4492,5.5109 2.4492,8.8201 0,4.2083 -1.2248,7.6736 -3.6869,10.4093 -2.4625,2.7362 -6.1365,4.4559 -11.035,5.1722 2.4365,1.4203 4.4426,2.9833 6.019,4.6901 1.5896,1.7069 3.7262,4.7424 6.4098,9.0939 l 6.8267,10.9173 h -13.5103 l -8.1033,-12.2204 c -2.9051,-4.3382 -4.8984,-7.074 -5.98,-8.2077 -1.0683,-1.1205 -2.2016,-1.9018 -3.4004,-2.3188 -1.2115,-0.417 -3.1133,-0.6257 -5.7191,-0.6257 h -2.2931 v 23.3726 z m 11.3343,-32.2838 h 8.3642 c 5.4198,0 8.7941,-0.2343 10.1489,-0.6902 1.342,-0.4559 2.4103,-1.251 3.166,-2.371 0.7685,-1.1204 1.1461,-2.5274 1.1461,-4.2082 0,-1.8889 -0.5081,-3.4003 -1.5109,-4.573 -1.0033,-1.1594 -2.4236,-1.889 -4.2476,-2.1888 -0.9245,-0.1299 -3.6736,-0.1954 -8.2466,-0.1954 h -8.8201 z"
       style="fill:#103875;fill-rule:evenodd"
       id="path27" />
    <path
       d="m 260.7056,469.1353 h 22.7523 c 5.1342,0 9.0461,0.3515 11.7355,1.0683 3.6101,0.964 6.7165,2.6836 9.2908,5.1589 2.5885,2.4625 4.5445,5.4848 5.8963,9.0677 1.3376,3.5697 2.0135,7.9862 2.0135,13.2233 0,4.6119 -0.6331,8.5725 -1.8983,11.9079 -1.5389,4.0778 -3.7395,7.3737 -6.6013,9.8884 -2.1573,1.9151 -5.0766,3.4004 -8.7443,4.4687 -2.7466,0.7945 -6.4142,1.1854 -11.0163,1.1854 h -23.4282 z m 12.5124,9.4582 v 37.0518 h 9.276 c 3.4663,0 5.9691,-0.1822 7.5076,-0.5342 2.0283,-0.4558 3.6962,-1.2376 5.0195,-2.3315 1.3371,-1.0944 2.4163,-2.8923 3.2502,-5.3937 0.8483,-2.5014 1.2652,-5.9278 1.2652,-10.2532 0,-4.3254 -0.4169,-7.6347 -1.2652,-9.9534 -0.8339,-2.3193 -2.0135,-4.1172 -3.5239,-5.4198 -1.5099,-1.2898 -3.4225,-2.1755 -5.7526,-2.6319 -1.726,-0.3515 -5.1342,-0.5341 -10.1966,-0.5341 z"
       style="fill:#103875;fill-rule:evenodd"
       id="path28" />
    <defs
       id="defs29">
      <linearGradient
         id="grad19">
        <stop
           offset="0%"
           stop-color="#539740"
           stop-opacity="1.0000"
           id="stop28" />
        <stop
           offset="100%"
           stop-color="#155d37"
           stop-opacity="1.0000"
           id="stop29" />
      </linearGradient>
      <linearGradient
         xlink:href="#grad19"
         id="grad20"
         x1="0"
         y1="0"
         x2="0"
         y2="1"
         gradientTransform="rotate(117,0.5,0.5)"
         gradientUnits="objectBoundingBox" />
    </defs>
    <path
       d="m 331.8396,525.1039 v -55.9686 h 8.3337 l 32.1637,43.9308 v -43.9308 h 7.7907 v 55.9686 h -8.3332 l -32.1637,-43.9307 v 43.9307 z m 183.9913,0 v -49.4027 h -18.4476 v -6.5659 h 44.3216 v 6.5659 h -18.4481 v 49.4027 z m -68.388,-17.9789 6.9568,-0.6252 c 0.3259,2.814 1.0944,5.1199 2.3059,6.9311 1.2121,1.7979 3.0878,3.2571 5.6286,4.3771 2.5402,1.1077 5.4064,1.6679 8.5853,1.6679 2.8273,0 5.3154,-0.417 7.4781,-1.2637 2.1626,-0.8468 3.7651,-2.0067 4.8206,-3.4787 1.055,-1.4719 1.5892,-3.0744 1.5892,-4.7945 0,-1.7457 -0.5081,-3.2699 -1.5242,-4.5858 -1.0161,-1.3027 -2.6969,-2.3971 -5.0417,-3.296 -1.4986,-0.573 -4.8207,-1.4853 -9.9667,-2.7229 -5.1461,-1.2377 -8.7419,-2.3971 -10.8002,-3.4915 -2.6707,-1.407 -4.6513,-3.1527 -5.9539,-5.2243 -1.3159,-2.0716 -1.9673,-4.4036 -1.9673,-6.97 0,-2.8401 0.8079,-5.4848 2.4104,-7.934 1.6024,-2.4625 3.9345,-4.3254 7.0222,-5.6019 3.0744,-1.2771 6.5009,-1.9156 10.266,-1.9156 4.1428,0 7.8035,0.6646 10.9695,2.0066 3.166,1.3288 5.602,3.296 7.3088,5.9018 1.7068,2.5925 2.6186,5.5369 2.749,8.8201 l -7.1133,0.547 c -0.3781,-3.5308 -1.6674,-6.2016 -3.8695,-7.9995 -2.2016,-1.8107 -5.4587,-2.7096 -9.758,-2.7096 -4.4814,0 -7.7518,0.8206 -9.7973,2.4625 -2.045,1.6413 -3.0744,3.6214 -3.0744,5.9406 0,2.0061 0.7295,3.6608 2.1754,4.9639 1.4331,1.2894 5.1466,2.6314 11.1655,3.9862 6.0189,1.3681 10.1489,2.5536 12.3893,3.5697 3.2443,1.4986 5.6546,3.3875 7.2049,5.6935 1.5503,2.2931 2.3188,4.9378 2.3188,7.934 0,2.9833 -0.8468,5.7717 -2.5536,8.4031 -1.7064,2.6319 -4.1428,4.6774 -7.3344,6.1366 -3.1921,1.4587 -6.7751,2.1883 -10.7745,2.1883 -5.055,0 -9.2888,-0.7424 -12.7025,-2.2144 -3.4264,-1.4725 -6.0972,-3.6874 -8.0383,-6.6574 -1.954,-2.9573 -2.9701,-6.306 -3.0745,-10.045 z m -49.4194,17.9789 v -55.9686 h 40.4127 v 6.5659 h -32.9868 v 17.1972 h 30.8763 v 6.5663 h -30.8763 v 19.0729 h 34.3161 v 6.5663 z"
       style="fill:url(#grad20)"
       id="path29" />
    <defs
       id="defs31">
      <linearGradient
         id="grad21">
        <stop
           offset="0%"
           stop-color="#166339"
           stop-opacity="1.0000"
           id="stop30" />
        <stop
           offset="100%"
           stop-color="#103875"
           stop-opacity="1.0000"
           id="stop31" />
      </linearGradient>
    </defs>
    <path
       d="m 70.3724,588.3079 v -19.539 h 8.0797 c 1.4198,0 2.5058,0.0635 3.258,0.186 1.0516,0.1596 1.9333,0.4643 2.6457,0.9098 0.7119,0.4505 1.2854,1.0782 1.7186,1.8831 0.4332,0.8049 0.6479,1.692 0.6479,2.6609 0,1.6556 -0.578,3.0606 -1.7393,4.2067 -1.1555,1.151 -3.2527,1.7241 -6.2818,1.7241 h -5.4897 v 7.9684 z m 464.5811,-4.5848 2.7199,0.3279 c -0.4238,1.4414 -1.2155,2.5649 -2.3714,3.3609 -1.1554,0.7961 -2.6304,1.1963 -4.4283,1.1963 -2.2616,0 -4.0551,-0.637 -5.3804,-1.9101 -1.3247,-1.2692 -1.9874,-3.0567 -1.9874,-5.3533 0,-2.3744 0.6676,-4.2211 2.0071,-5.5311 1.3401,-1.3144 3.0789,-1.9692 5.216,-1.9692 2.0672,0 3.7563,0.6415 5.0663,1.9284 1.3105,1.2873 1.9677,3.0975 1.9677,5.4306 0,0.1413 -0.005,0.3549 -0.0152,0.637 h -11.5519 c 0.0999,1.5508 0.5779,2.7426 1.4444,3.5658 0.862,0.8231 1.9431,1.2371 3.2334,1.2371 0.9615,0 1.7832,-0.2323 2.4611,-0.6961 0.6823,-0.4637 1.2199,-1.2051 1.6187,-2.2242 z m -8.6085,-3.8474 h 8.6385 c -0.1147,-1.1918 -0.4485,-2.0834 -0.9915,-2.6791 -0.8315,-0.9236 -1.918,-1.3873 -3.2477,-1.3873 -1.2057,0 -2.2169,0.3682 -3.039,1.1052 -0.8173,0.737 -1.2707,1.7241 -1.3603,2.9612 z m -9.0441,8.4322 v -1.7964 c -0.9812,1.3962 -2.4256,2.0967 -4.3337,2.0967 -1.2357,0 -2.3715,-0.3091 -3.4024,-0.9324 -1.0363,-0.6188 -1.8382,-1.4873 -2.4113,-2.5969 -0.5676,-1.1146 -0.8517,-2.3926 -0.8517,-3.839 0,-1.41 0.259,-2.688 0.772,-3.8385 0.5184,-1.1461 1.2903,-2.0288 2.3212,-2.6383 1.0269,-0.6139 2.1824,-0.9186 3.4525,-0.9186 0.9369,0 1.7689,0.1822 2.4955,0.5411 0.7276,0.3593 1.3209,0.8324 1.7792,1.4099 v -7.0266 h 2.6299 v 19.539 z m -8.3091,-7.0636 c 0,1.8102 0.4185,3.1611 1.2608,4.0571 0.8369,0.896 1.8279,1.342 2.9686,1.342 1.151,0 2.1272,-0.4278 2.9341,-1.2829 0.8025,-0.8551 1.2057,-2.1602 1.2057,-3.9158 0,-1.9284 -0.4082,-3.3477 -1.2308,-4.2525 -0.8167,-0.9054 -1.8279,-1.3553 -3.0286,-1.3553 -1.1707,0 -2.147,0.4317 -2.9342,1.3006 -0.7823,0.8685 -1.1756,2.2376 -1.1756,4.1068 z m -19.7744,-0.0182 c 0,-2.6151 0.7966,-4.5528 2.3961,-5.8126 1.3302,-1.0462 2.9592,-1.569 4.8772,-1.569 2.1273,0 3.8705,0.6366 5.2253,1.9102 1.3504,1.2691 2.0273,3.0291 2.0273,5.2715 0,1.8191 -0.2983,3.2473 -0.8964,4.289 -0.5977,1.0417 -1.4696,1.8511 -2.6152,2.4285 -1.1411,0.578 -2.3916,0.8645 -3.741,0.8645 -2.172,0 -3.9256,-0.6321 -5.2662,-1.9013 -1.34,-1.2691 -2.0071,-3.0975 -2.0071,-5.4808 z m 2.69,0.005 c 0,1.8102 0.4337,3.1656 1.3001,4.0616 0.8719,0.9004 1.9624,1.3508 3.2832,1.3508 1.3046,0 2.3906,-0.4504 3.2625,-1.3553 0.8675,-0.9053 1.3002,-2.2833 1.3002,-4.1343 0,-1.7467 -0.4382,-3.0706 -1.3095,-3.9665 -0.8719,-0.9005 -1.9579,-1.3504 -3.2532,-1.3504 -1.3208,0 -2.4113,0.4455 -3.2832,1.3415 -0.8664,0.896 -1.3001,2.2469 -1.3001,4.0526 z m -6.977,1.892 2.5704,0.3273 c -0.2836,1.6148 -1.0014,2.8746 -2.1618,3.7888 -1.1608,0.9142 -2.591,1.3691 -4.2791,1.3691 -2.1174,0 -3.8212,-0.6321 -5.1061,-1.8968 -1.2904,-1.2643 -1.9333,-3.0745 -1.9333,-5.4306 0,-1.5281 0.2791,-2.8608 0.832,-4.0069 0.5533,-1.1417 1.3952,-2.0012 2.5304,-2.5698 1.1313,-0.5731 2.3621,-0.8596 3.6962,-0.8596 1.6793,0 3.0592,0.3865 4.1251,1.1643 1.0712,0.7779 1.7585,1.8831 2.0578,3.3112 l -2.5408,0.355 c -0.2442,-0.9506 -0.6725,-1.665 -1.2953,-2.1469 -0.6178,-0.4776 -1.3651,-0.7188 -2.2419,-0.7188 -1.3248,0 -2.401,0.4322 -3.2325,1.2962 -0.827,0.869 -1.2406,2.2331 -1.2406,4.1073 0,1.9008 0.3983,3.2793 1.1953,4.1388 0.8025,0.8596 1.8437,1.2918 3.1237,1.2918 1.0363,0 1.8978,-0.2865 2.5856,-0.8645 0.6922,-0.573 1.1303,-1.4596 1.3149,-2.6559 z m -35.5212,5.1849 v -14.1631 h 2.3616 v 2.0101 c 1.1352,-1.5419 2.7795,-2.3104 4.9265,-2.3104 0.9368,0 1.7934,0.1546 2.5752,0.4593 0.7828,0.3048 1.3701,0.7094 1.7585,1.2052 0.3889,0.4957 0.6627,1.087 0.8168,1.7693 0.095,0.4461 0.1447,1.2234 0.1447,2.3336 v 8.696 h -2.6304 v -8.6055 c 0,-0.9777 -0.0989,-1.7097 -0.3032,-2.1922 -0.2048,-0.482 -0.5682,-0.8684 -1.0861,-1.1594 -0.5184,-0.2865 -1.1308,-0.4322 -1.8284,-0.4322 -1.116,0 -2.0775,0.3229 -2.8893,0.9733 -0.8123,0.6459 -1.2155,1.8786 -1.2155,3.6888 v 7.7272 z m -7.101,-16.8102 v -2.7288 h 2.6299 v 2.7288 z m 0,16.8102 v -14.1631 h 2.6299 v 14.1631 z m -18.7494,0 v -14.1631 h 2.3616 v 2.1696 c 0.6026,-1.0053 1.1608,-1.6694 1.6733,-1.9879 0.5135,-0.323 1.0767,-0.482 1.6891,-0.482 0.8872,0 1.7886,0.2545 2.7052,0.7596 l -0.9368,2.2149 c -0.6376,-0.3274 -1.2751,-0.4913 -1.9131,-0.4913 -0.5726,0 -1.086,0.1595 -1.539,0.4731 -0.4534,0.3141 -0.7773,0.7508 -0.9713,1.31 -0.2939,0.8507 -0.4386,1.7827 -0.4386,2.7973 v 7.3998 z m -6.4738,-4.5848 2.7205,0.3279 c -0.4239,1.4414 -1.2155,2.5649 -2.3715,3.3609 -1.1554,0.7961 -2.6303,1.1963 -4.4287,1.1963 -2.2612,0 -4.0546,-0.637 -5.3799,-1.9101 -1.3248,-1.2692 -1.9875,-3.0567 -1.9875,-5.3533 0,-2.3744 0.6671,-4.2211 2.0072,-5.5311 1.34,-1.3144 3.0788,-1.9692 5.2159,-1.9692 2.0672,0 3.7563,0.6415 5.0663,1.9284 1.3105,1.2873 1.9678,3.0975 1.9678,5.4306 0,0.1413 -0.005,0.3549 -0.0153,0.637 h -11.5519 c 0.0999,1.5508 0.578,2.7426 1.4444,3.5658 0.8615,0.8231 1.9426,1.2371 3.233,1.2371 0.9614,0 1.7836,-0.2323 2.461,-0.6961 0.6828,-0.4637 1.2204,-1.2051 1.6187,-2.2242 z m -8.6079,-3.8474 h 8.6384 c -0.1152,-1.1918 -0.449,-2.0834 -0.9915,-2.6791 -0.8315,-0.9236 -1.918,-1.3873 -3.2477,-1.3873 -1.2057,0 -2.2169,0.3682 -3.039,1.1052 -0.8172,0.737 -1.2706,1.7241 -1.3602,2.9612 z m -21.2292,8.4322 -4.6872,-14.1631 h 2.749 l 2.4763,8.1733 0.8768,3.0424 c 0.035,-0.1502 0.3042,-1.1234 0.802,-2.9199 l 2.4561,-8.2958 h 2.6948 l 2.3365,8.223 0.7621,2.6973 0.8916,-2.7338 2.6806,-8.1865 h 2.555 l -4.8669,14.1631 h -2.72 l -2.4605,-8.4735 -0.6228,-2.4241 -3.1384,10.8976 z m -20.8604,-7.0818 c 0,-2.6151 0.7966,-4.5528 2.3961,-5.8126 1.3302,-1.0462 2.9592,-1.569 4.8772,-1.569 2.1273,0 3.8705,0.6366 5.2253,1.9102 1.3504,1.2691 2.0278,3.0291 2.0278,5.2715 0,1.8191 -0.2988,3.2473 -0.8969,4.289 -0.5972,1.0417 -1.4696,1.8511 -2.6152,2.4285 -1.1411,0.578 -2.3916,0.8645 -3.741,0.8645 -2.172,0 -3.9256,-0.6321 -5.2662,-1.9013 -1.3395,-1.2691 -2.0071,-3.0975 -2.0071,-5.4808 z m 2.69,0.005 c 0,1.8102 0.4337,3.1656 1.3001,4.0616 0.8719,0.9004 1.9629,1.3508 3.2832,1.3508 1.3046,0 2.3906,-0.4504 3.2625,-1.3553 0.8675,-0.9053 1.3002,-2.2833 1.3002,-4.1343 0,-1.7467 -0.4382,-3.0706 -1.3095,-3.9665 -0.8719,-0.9005 -1.9579,-1.3504 -3.2532,-1.3504 -1.3203,0 -2.4113,0.4455 -3.2832,1.3415 -0.8664,0.896 -1.3001,2.2469 -1.3001,4.0526 z m -21.7722,7.0769 v -19.539 h 8.0797 c 1.4198,0 2.5058,0.0635 3.2581,0.186 1.0515,0.1596 1.9333,0.4643 2.6456,0.9098 0.7119,0.4505 1.2854,1.0782 1.7187,1.8831 0.4332,0.8049 0.6478,1.692 0.6478,2.6609 0,1.6556 -0.5779,3.0606 -1.7393,4.2067 -1.1554,1.151 -3.2526,1.7241 -6.2818,1.7241 h -5.4897 v 7.9684 z m 2.8391,-10.2606 h 5.5296 c 1.8333,0 3.1286,-0.3096 3.901,-0.9324 0.767,-0.6233 1.1505,-1.4966 1.1505,-2.6289 0,-0.8143 -0.2245,-1.5148 -0.6774,-2.0967 -0.4534,-0.5824 -1.0511,-0.9689 -1.7885,-1.1555 -0.4781,-0.1137 -1.3598,-0.1728 -2.6398,-0.1728 h -5.4754 z m -29.9951,4.3933 v -2.4014 h 15.192 v 2.4014 z m -26.2871,1.6374 2.6004,-0.382 c 0.1447,0.9506 0.5528,1.6783 1.2204,2.1878 0.6676,0.5046 1.6039,0.7596 2.8002,0.7596 1.2106,0 2.1071,-0.223 2.6949,-0.6734 0.5829,-0.4456 0.8768,-0.9733 0.8768,-1.5779 0,-0.5415 -0.2644,-0.9688 -0.7872,-1.2785 -0.3687,-0.2136 -1.2657,-0.482 -2.6904,-0.8138 -1.9225,-0.4411 -3.2532,-0.8231 -4.0005,-1.146 -0.7419,-0.3279 -1.3046,-0.7735 -1.6881,-1.3465 -0.384,-0.5686 -0.578,-1.2007 -0.578,-1.8919 0,-0.6326 0.1595,-1.2145 0.4736,-1.7512 0.3185,-0.5366 0.7469,-0.9826 1.2899,-1.3371 0.4086,-0.2732 0.9664,-0.5051 1.6684,-0.6961 0.7074,-0.191 1.4597,-0.2865 2.267,-0.2865 1.2155,0 2.2814,0.159 3.1981,0.482 0.9215,0.3185 1.5994,0.7552 2.0376,1.3011 0.4337,0.5499 0.737,1.2825 0.9019,2.2011 l -2.5708,0.3274 c -0.1147,-0.7365 -0.4534,-1.3144 -1.0112,-1.728 -0.5578,-0.414 -1.345,-0.6188 -2.3665,-0.6188 -1.2007,0 -2.0623,0.1821 -2.5753,0.546 -0.5129,0.3638 -0.7719,0.7911 -0.7719,1.278 0,0.3092 0.1044,0.5912 0.3185,0.8413 0.2142,0.2546 0.548,0.4687 1.0063,0.6366 0.2644,0.0911 1.0309,0.2959 2.3163,0.6144 1.8535,0.4499 3.1488,0.8231 3.8857,1.1096 0.7375,0.2866 1.315,0.7094 1.7335,1.2554 0.4238,0.5504 0.6331,1.2322 0.6331,2.0509 0,0.7961 -0.2546,1.5469 -0.7671,2.2518 -0.5134,0.705 -1.2504,1.2505 -2.2119,1.637 -0.9664,0.3869 -2.0578,0.5779 -3.2733,0.5779 -2.0121,0 -3.5515,-0.382 -4.608,-1.1416 -1.0555,-0.7641 -1.7285,-1.892 -2.0224,-3.3886 z m -6.0253,4.2299 v -1.7964 c -0.9811,1.3962 -2.426,2.0967 -4.3337,2.0967 -1.2357,0 -2.3715,-0.3091 -3.4023,-0.9324 -1.0363,-0.6188 -1.8383,-1.4873 -2.4113,-2.5969 -0.5682,-1.1146 -0.8522,-2.3926 -0.8522,-3.839 0,-1.41 0.2594,-2.688 0.7724,-3.8385 0.5179,-1.1461 1.2903,-2.0288 2.3212,-2.6383 1.0265,-0.6139 2.1824,-0.9186 3.4525,-0.9186 0.9369,0 1.7689,0.1822 2.4955,0.5411 0.7277,0.3593 1.3204,0.8324 1.7787,1.4099 v -7.0266 h 2.6304 v 19.539 z m -8.3091,-7.0636 c 0,1.8102 0.4185,3.1611 1.2603,4.0571 0.8369,0.896 1.8279,1.342 2.9691,1.342 1.1505,0 2.1272,-0.4278 2.9336,-1.2829 0.8025,-0.8551 1.2062,-2.1602 1.2062,-3.9158 0,-1.9284 -0.4086,-3.3477 -1.2308,-4.2525 -0.8167,-0.9054 -1.8279,-1.3553 -3.0286,-1.3553 -1.1707,0 -2.1475,0.4317 -2.9347,1.3006 -0.7817,0.8685 -1.1751,2.2376 -1.1751,4.1068 z m -12.1481,7.0636 V 574.145 h 2.3611 v 2.1696 c 0.6031,-1.0053 1.1609,-1.6694 1.6738,-1.9879 0.5135,-0.323 1.0762,-0.482 1.6886,-0.482 0.8872,0 1.7886,0.2545 2.7053,0.7596 l -0.9364,2.2149 c -0.638,-0.3274 -1.2751,-0.4913 -1.9131,-0.4913 -0.5725,0 -1.086,0.1595 -1.5389,0.4731 -0.4535,0.3141 -0.7774,0.7508 -0.9718,1.31 -0.294,0.8507 -0.4382,1.7827 -0.4382,2.7973 v 7.3998 z m -18.041,-7.0818 c 0,-2.6151 0.7971,-4.5528 2.3961,-5.8126 1.3302,-1.0462 2.9592,-1.569 4.8772,-1.569 2.1273,0 3.8705,0.6366 5.2259,1.9102 1.3498,1.2691 2.0273,3.0291 2.0273,5.2715 0,1.8191 -0.2989,3.2473 -0.897,4.289 -0.5972,1.0417 -1.4691,1.8511 -2.6151,2.4285 -1.1407,0.578 -2.3912,0.8645 -3.7411,0.8645 -2.172,0 -3.9251,-0.6321 -5.2656,-1.9013 -1.3401,-1.2691 -2.0077,-3.0975 -2.0077,-5.4808 z m 2.69,0.005 c 0,1.8102 0.4337,3.1656 1.3002,4.0616 0.8718,0.9004 1.9628,1.3508 3.2831,1.3508 1.3051,0 2.3912,-0.4504 3.263,-1.3553 0.867,-0.9053 1.3002,-2.2833 1.3002,-4.1343 0,-1.7467 -0.4386,-3.0706 -1.31,-3.9665 -0.8719,-0.9005 -1.9579,-1.3504 -3.2532,-1.3504 -1.3203,0 -2.4113,0.4455 -3.2831,1.3415 -0.8665,0.896 -1.3002,2.2469 -1.3002,4.0526 z m -20.9604,7.0769 -4.6872,-14.1631 h 2.7495 l 2.4763,8.1733 0.8763,3.0424 c 0.0355,-0.1502 0.3043,-1.1234 0.802,-2.9199 l 2.4561,-8.2958 h 2.6949 l 2.3364,8.223 0.7626,2.6973 0.8916,-2.7338 2.6801,-8.1865 h 2.5555 l -4.8669,14.1631 h -2.72 l -2.461,-8.4735 -0.6228,-2.4241 -3.1379,10.8976 z m -27.6571,0 v -14.1631 h 2.3616 v 2.0101 c 1.1352,-1.5419 2.7795,-2.3104 4.9265,-2.3104 0.9368,0 1.7934,0.1546 2.5752,0.4593 0.7828,0.3048 1.3701,0.7094 1.7585,1.2052 0.3889,0.4957 0.6627,1.087 0.8167,1.7693 0.0951,0.4461 0.1448,1.2234 0.1448,2.3336 v 8.696 h -2.6304 v -8.6055 c 0,-0.9777 -0.099,-1.7097 -0.3033,-2.1922 -0.2048,-0.482 -0.5681,-0.8684 -1.086,-1.1594 -0.5184,-0.2865 -1.1308,-0.4322 -1.8284,-0.4322 -1.1161,0 -2.0775,0.3229 -2.8893,0.9733 -0.8123,0.6459 -1.2155,1.8786 -1.2155,3.6888 v 7.7272 z m -7.101,-16.8102 v -2.7288 h 2.6299 v 2.7288 z m 0,16.8102 v -14.1631 h 2.6299 v 14.1631 z m -24.9549,0 v -14.1631 h 2.3616 v 2.0101 c 1.1352,-1.5419 2.7795,-2.3104 4.9265,-2.3104 0.9368,0 1.7934,0.1546 2.5752,0.4593 0.7828,0.3048 1.3701,0.7094 1.7585,1.2052 0.3889,0.4957 0.6627,1.087 0.8167,1.7693 0.0951,0.4461 0.1448,1.2234 0.1448,2.3336 v 8.696 h -2.6304 v -8.6055 c 0,-0.9777 -0.099,-1.7097 -0.3037,-2.1922 -0.2044,-0.482 -0.5677,-0.8684 -1.0856,-1.1594 -0.5184,-0.2865 -1.1308,-0.4322 -1.8289,-0.4322 -1.1156,0 -2.077,0.3229 -2.8888,0.9733 -0.8123,0.6459 -1.2155,1.8786 -1.2155,3.6888 v 7.7272 z m -16.9855,-7.0818 c 0,-2.6151 0.797,-4.5528 2.3961,-5.8126 1.3302,-1.0462 2.9592,-1.569 4.8772,-1.569 2.1273,0 3.8705,0.6366 5.2253,1.9102 1.3504,1.2691 2.0278,3.0291 2.0278,5.2715 0,1.8191 -0.2988,3.2473 -0.8969,4.289 -0.5972,1.0417 -1.4691,1.8511 -2.6152,2.4285 -1.1406,0.578 -2.3911,0.8645 -3.741,0.8645 -2.172,0 -3.9256,-0.6321 -5.2657,-1.9013 -1.34,-1.2691 -2.0076,-3.0975 -2.0076,-5.4808 z m 2.69,0.005 c 0,1.8102 0.4337,3.1656 1.3001,4.0616 0.8719,0.9004 1.9629,1.3508 3.2832,1.3508 1.3051,0 2.3911,-0.4504 3.263,-1.3553 0.867,-0.9053 1.2997,-2.2833 1.2997,-4.1343 0,-1.7467 -0.4382,-3.0706 -1.3095,-3.9665 -0.8719,-0.9005 -1.9579,-1.3504 -3.2532,-1.3504 -1.3203,0 -2.4113,0.4455 -3.2832,1.3415 -0.8664,0.896 -1.3001,2.2469 -1.3001,4.0526 z m -7.7194,-9.7333 v -2.7288 h 2.6304 v 2.7288 z m 0,16.8102 v -14.1631 h 2.6304 v 14.1631 z m -15.3668,-4.2299 2.6004,-0.382 c 0.1447,0.9506 0.5529,1.6783 1.2204,2.1878 0.6676,0.5046 1.6039,0.7596 2.8002,0.7596 1.2101,0 2.1071,-0.223 2.6949,-0.6734 0.5829,-0.4456 0.8768,-0.9733 0.8768,-1.5779 0,-0.5415 -0.2644,-0.9688 -0.7872,-1.2785 -0.3692,-0.2136 -1.2657,-0.482 -2.6904,-0.8138 -1.923,-0.4411 -3.2532,-0.8231 -4.0005,-1.146 -0.7419,-0.3279 -1.3046,-0.7735 -1.6881,-1.3465 -0.384,-0.5686 -0.578,-1.2007 -0.578,-1.8919 0,-0.6326 0.1595,-1.2145 0.4731,-1.7512 0.3191,-0.5366 0.7469,-0.9826 1.2899,-1.3371 0.4091,-0.2732 0.9669,-0.5051 1.6689,-0.6961 0.7074,-0.191 1.4597,-0.2865 2.267,-0.2865 1.2155,0 2.2814,0.159 3.1981,0.482 0.9215,0.3185 1.5995,0.7552 2.0376,1.3011 0.4337,0.5499 0.737,1.2825 0.9014,2.2011 l -2.5703,0.3274 c -0.1147,-0.7365 -0.4534,-1.3144 -1.0117,-1.728 -0.5573,-0.414 -1.3445,-0.6188 -2.366,-0.6188 -1.2007,0 -2.0623,0.1821 -2.5753,0.546 -0.5129,0.3638 -0.7719,0.7911 -0.7719,1.278 0,0.3092 0.1044,0.5912 0.3185,0.8413 0.2142,0.2546 0.548,0.4687 1.0063,0.6366 0.2644,0.0911 1.0309,0.2959 2.3163,0.6144 1.8535,0.4499 3.1488,0.8231 3.8858,1.1096 0.7374,0.2866 1.3149,0.7094 1.7334,1.2554 0.4238,0.5504 0.6331,1.2322 0.6331,2.0509 0,0.7961 -0.2546,1.5469 -0.7675,2.2518 -0.513,0.705 -1.25,1.2505 -2.2115,1.637 -0.9664,0.3869 -2.0578,0.5779 -3.2733,0.5779 -2.012,0 -3.5515,-0.382 -4.608,-1.1416 -1.056,-0.7641 -1.7289,-1.892 -2.0224,-3.3886 z m -4.9698,-12.5803 v -2.7288 h 2.6304 v 2.7288 z m 0,16.8102 v -14.1631 h 2.6304 v 14.1631 z m -4.188,-5.1849 2.5708,0.3273 c -0.284,1.6148 -1.0013,2.8746 -2.1617,3.7888 -1.1613,0.9142 -2.591,1.3691 -4.2796,1.3691 -2.1174,0 -3.8213,-0.6321 -5.1062,-1.8968 -1.2903,-1.2643 -1.9333,-3.0745 -1.9333,-5.4306 0,-1.5281 0.2797,-2.8608 0.832,-4.0069 0.5534,-1.1417 1.3952,-2.0012 2.531,-2.5698 1.1313,-0.5731 2.3616,-0.8596 3.6962,-0.8596 1.6792,0 3.0587,0.3865 4.125,1.1643 1.0708,0.7779 1.758,1.8831 2.0574,3.3112 l -2.5408,0.355 c -0.2442,-0.9506 -0.672,-1.665 -1.2953,-2.1469 -0.6178,-0.4776 -1.3651,-0.7188 -2.2419,-0.7188 -1.3248,0 -2.401,0.4322 -3.2325,1.2962 -0.8271,0.869 -1.2406,2.2331 -1.2406,4.1073 0,1.9008 0.3983,3.2793 1.1953,4.1388 0.8025,0.8596 1.8437,1.2918 3.1237,1.2918 1.0363,0 1.8978,-0.2865 2.5856,-0.8645 0.6921,-0.573 1.1308,-1.4596 1.3149,-2.6559 z m -15.5509,0.6001 2.7205,0.3279 c -0.4239,1.4414 -1.2155,2.5649 -2.3715,3.3609 -1.1554,0.7961 -2.6303,1.1963 -4.4287,1.1963 -2.2612,0 -4.0546,-0.637 -5.3799,-1.9101 -1.3248,-1.2692 -1.988,-3.0567 -1.988,-5.3533 0,-2.3744 0.6676,-4.2211 2.0077,-5.5311 1.34,-1.3144 3.0788,-1.9692 5.2159,-1.9692 2.0672,0 3.7563,0.6415 5.0663,1.9284 1.3105,1.2873 1.9678,3.0975 1.9678,5.4306 0,0.1413 -0.005,0.3549 -0.0153,0.637 h -11.5519 c 0.0994,1.5508 0.578,2.7426 1.4444,3.5658 0.8615,0.8231 1.9426,1.2371 3.233,1.2371 0.9614,0 1.7836,-0.2323 2.461,-0.6961 0.6828,-0.4637 1.2204,-1.2051 1.6187,-2.2242 z m -8.6079,-3.8474 h 8.6384 c -0.1152,-1.1918 -0.449,-2.0834 -0.992,-2.6791 -0.831,-0.9236 -1.9175,-1.3873 -3.2472,-1.3873 -1.2062,0 -2.2169,0.3682 -3.039,1.1052 -0.8172,0.737 -1.2706,1.7241 -1.3602,2.9612 z m -11.3314,8.4322 v -14.1631 h 2.3611 v 2.1696 c 0.6031,-1.0053 1.1608,-1.6694 1.6738,-1.9879 0.5135,-0.323 1.0762,-0.482 1.6886,-0.482 0.8872,0 1.7886,0.2545 2.7052,0.7596 l -0.9363,2.2149 c -0.6381,-0.3274 -1.2756,-0.4913 -1.9131,-0.4913 -0.5726,0 -1.086,0.1595 -1.539,0.4731 -0.4534,0.3141 -0.7778,0.7508 -0.9718,1.31 -0.2939,0.8507 -0.4381,1.7827 -0.4381,2.7973 v 7.3998 z m -16.1141,-10.261 h 5.5295 c 1.8334,0 3.1286,-0.3096 3.9011,-0.9324 0.767,-0.6233 1.1505,-1.4966 1.1505,-2.6289 0,-0.8143 -0.2245,-1.5148 -0.6774,-2.0967 -0.4534,-0.5824 -1.0511,-0.9689 -1.7886,-1.1555 -0.478,-0.1137 -1.3597,-0.1728 -2.6397,-0.1728 h -5.4754 z"
       style="fill:url(#grad21)"
       id="path31" />
    <path
       d="m 331.7972,549.5527 2.66,-0.2185 c 0.1245,0.9826 0.4184,1.7875 0.8822,2.4196 0.4632,0.6277 1.18,1.1373 2.1518,1.5281 0.9713,0.387 2.0672,0.5824 3.2827,0.5824 1.0811,0 2.0322,-0.1457 2.8593,-0.4411 0.8276,-0.2958 1.44,-0.7005 1.8432,-1.2145 0.4037,-0.5139 0.608,-1.0732 0.608,-1.6738 0,-0.6095 -0.1945,-1.1417 -0.5829,-1.601 -0.3884,-0.4549 -1.0314,-0.8369 -1.9279,-1.1505 -0.5725,-0.2004 -1.8431,-0.5184 -3.8114,-0.9506 -1.9672,-0.4323 -3.3422,-0.837 -4.1289,-1.219 -1.0216,-0.4913 -1.7792,-1.1008 -2.2769,-1.824 -0.5037,-0.7232 -0.7523,-1.5369 -0.7523,-2.4329 0,-0.9915 0.3087,-1.9151 0.9216,-2.7702 0.6129,-0.8596 1.5045,-1.5099 2.685,-1.9555 1.1762,-0.446 2.4857,-0.6685 3.9252,-0.6685 1.5842,0 2.9843,0.2319 4.1949,0.7 1.2106,0.4643 2.142,1.151 2.7948,2.0603 0.6528,0.9054 1.0009,1.9333 1.0511,3.0794 l -2.72,0.191 c -0.1447,-1.2327 -0.6375,-2.1651 -1.4799,-2.7928 -0.8418,-0.6321 -2.0873,-0.9457 -3.7306,-0.9457 -1.7138,0 -2.9642,0.2865 -3.7465,0.8595 -0.7818,0.5731 -1.1756,1.2643 -1.1756,2.0741 0,0.7001 0.2786,1.278 0.832,1.7329 0.5479,0.45 1.9677,0.9186 4.2693,1.3917 2.3015,0.4776 3.8803,0.8911 4.7374,1.2461 1.2406,0.5233 2.1622,1.1825 2.7544,1.9874 0.5933,0.8005 0.8872,1.7241 0.8872,2.7702 0,1.0412 -0.324,2.0145 -0.9763,2.9336 -0.6528,0.9187 -1.5842,1.6325 -2.8046,2.1421 -1.2209,0.5095 -2.591,0.764 -4.1201,0.764 -1.9323,0 -3.552,-0.2589 -4.8571,-0.7729 -1.31,-0.514 -2.331,-1.2874 -3.0734,-2.3242 -0.7474,-1.0328 -1.1358,-2.2016 -1.1757,-3.5067 z m 23.2836,-3.2339 c 0,-3.2384 0.9565,-5.7762 2.8642,-7.6091 1.9082,-1.8333 4.3687,-2.747 7.388,-2.747 1.9776,0 3.7563,0.4317 5.3454,1.2913 1.5838,0.8596 2.7944,2.0603 3.6263,3.6022 0.832,1.5375 1.2505,3.2842 1.2505,5.2352 0,1.9785 -0.4381,3.7523 -1.3149,5.3124 -0.8768,1.5645 -2.1174,2.7471 -3.7219,3.5476 -1.6088,0.8049 -3.3422,1.2051 -5.2007,1.2051 -2.0169,0 -3.8158,-0.4455 -5.405,-1.3327 -1.5842,-0.8866 -2.7894,-2.0967 -3.6066,-3.6337 -0.8172,-1.533 -1.2253,-3.1566 -1.2253,-4.8713 z m 2.9292,0.0453 c 0,2.3517 0.6922,4.2028 2.0775,5.5537 1.3848,1.3509 3.1232,2.0283 5.2155,2.0283 2.1321,0 3.8803,-0.6824 5.2607,-2.0465 1.3745,-1.3647 2.0623,-3.3019 2.0623,-5.8127 0,-1.5877 -0.2939,-2.9745 -0.8817,-4.157 -0.5878,-1.1825 -1.4494,-2.1016 -2.5807,-2.752 -1.1357,-0.6503 -2.4059,-0.9777 -3.8153,-0.9777 -2.0027,0 -3.7268,0.6277 -5.1712,1.8831 -1.4444,1.2553 -2.1671,3.3471 -2.1671,6.2808 z m 24.3552,9.465 v -19.539 h 2.8392 v 17.2469 h 10.5215 v 2.2921 z m 34.0483,-19.539 h 2.8396 v 11.2841 c 0,1.9648 -0.2442,3.5249 -0.7271,4.6798 -0.4884,1.151 -1.3647,2.0923 -2.6304,2.8155 -1.2706,0.7232 -2.9292,1.087 -4.9915,1.087 -1.9977,0 -3.6366,-0.3136 -4.9068,-0.9457 -1.2755,-0.6326 -2.1824,-1.5419 -2.7254,-2.7382 -0.543,-1.1963 -0.8167,-2.8293 -0.8167,-4.8984 v -11.2841 h 2.8396 v 11.2796 c 0,1.6965 0.1743,2.9514 0.5179,3.7519 0.3436,0.8054 0.9319,1.4282 1.7738,1.8604 0.8364,0.4367 1.8629,0.6548 3.0734,0.6548 2.0721,0 3.5515,-0.4318 4.4337,-1.2913 0.8817,-0.8645 1.3199,-2.5201 1.3199,-4.9758 z m 16.2948,19.539 v -17.2469 h -7.0543 v -2.2921 h 16.9476 v 2.2921 h -7.0537 v 17.2469 z m 16.5832,0 v -19.539 h 2.8397 v 19.539 z m 10.2474,-9.5103 c 0,-3.2384 0.9565,-5.7762 2.8642,-7.6091 1.9077,-1.8333 4.3687,-2.747 7.388,-2.747 1.9776,0 3.7558,0.4317 5.3449,1.2913 1.5843,0.8596 2.7948,2.0603 3.6268,3.6022 0.832,1.5375 1.2505,3.2842 1.2505,5.2352 0,1.9785 -0.4382,3.7523 -1.3149,5.3124 -0.8768,1.5645 -2.1174,2.7471 -3.7219,3.5476 -1.6088,0.8049 -3.3427,1.2051 -5.2007,1.2051 -2.0169,0 -3.8158,-0.4455 -5.405,-1.3327 -1.5842,-0.8866 -2.7894,-2.0967 -3.6066,-3.6337 -0.8172,-1.533 -1.2253,-3.1566 -1.2253,-4.8713 z m 2.9292,0.0453 c 0,2.3517 0.6921,4.2028 2.0775,5.5537 1.3848,1.3509 3.1232,2.0283 5.215,2.0283 2.1326,0 3.8808,-0.6824 5.2612,-2.0465 1.3745,-1.3647 2.0618,-3.3019 2.0618,-5.8127 0,-1.5877 -0.2934,-2.9745 -0.8812,-4.157 -0.5878,-1.1825 -1.4494,-2.1016 -2.5807,-2.752 -1.1357,-0.6503 -2.4064,-0.9777 -3.8158,-0.9777 -2.0022,0 -3.7263,0.6277 -5.1707,1.8831 -1.4449,1.2553 -2.1671,3.3471 -2.1671,6.2808 z m 24.4443,9.465 v -19.539 h 2.9091 l 11.2289,15.3362 v -15.3362 h 2.7195 v 19.539 h -2.909 l -11.2285,-15.3367 v 15.3367 z m 23.9762,-6.2764 2.66,-0.2185 c 0.1245,0.9826 0.4184,1.7875 0.8822,2.4196 0.4632,0.6277 1.1805,1.1373 2.1518,1.5281 0.9714,0.387 2.0677,0.5824 3.2827,0.5824 1.0811,0 2.0327,-0.1457 2.8598,-0.4411 0.8271,-0.2958 1.4395,-0.7005 1.8427,-1.2145 0.4042,-0.5139 0.608,-1.0732 0.608,-1.6738 0,-0.6095 -0.1945,-1.1417 -0.5829,-1.601 -0.3884,-0.4549 -1.0309,-0.8369 -1.9278,-1.1505 -0.5726,-0.2004 -1.8432,-0.5184 -3.811,-0.9506 -1.9677,-0.4323 -3.3427,-0.837 -4.1294,-1.219 -1.0211,-0.4913 -1.7787,-1.1008 -2.2764,-1.824 -0.5037,-0.7232 -0.7523,-1.5369 -0.7523,-2.4329 0,-0.9915 0.3082,-1.9151 0.9216,-2.7702 0.6124,-0.8596 1.504,-1.5099 2.6846,-1.9555 1.1761,-0.446 2.4856,-0.6685 3.9256,-0.6685 1.5842,0 2.9838,0.2319 4.1944,0.7 1.2106,0.4643 2.142,1.151 2.7948,2.0603 0.6528,0.9054 1.0014,1.9333 1.0516,3.0794 l -2.7205,0.191 c -0.1447,-1.2327 -0.6375,-2.1651 -1.4798,-2.7928 -0.8414,-0.6321 -2.0869,-0.9457 -3.7307,-0.9457 -1.7137,0 -2.9642,0.2865 -3.7465,0.8595 -0.7817,0.5731 -1.1756,1.2643 -1.1756,2.0741 0,0.7001 0.2792,1.278 0.832,1.7329 0.5479,0.45 1.9677,0.9186 4.2693,1.3917 2.302,0.4776 3.8808,0.8911 4.7374,1.2461 1.2406,0.5233 2.1622,1.1825 2.7549,1.9874 0.5933,0.8005 0.8867,1.7241 0.8867,2.7702 0,1.0412 -0.3239,2.0145 -0.9763,2.9336 -0.6523,0.9187 -1.5842,1.6325 -2.8046,2.1421 -1.2204,0.5095 -2.5905,0.764 -4.1201,0.764 -1.9323,0 -3.5515,-0.2589 -4.8571,-0.7729 -1.3095,-0.514 -2.331,-1.2874 -3.0734,-2.3242 -0.7473,-1.0328 -1.1358,-2.2016 -1.1757,-3.5067 z"
       style="fill:#1b1918;fill-rule:evenodd"
       id="path32" />
    <path
       d="m 163.2027,209.0525 v 1.3563 l 32.3031,26.7021 v -60.7883 z"
       style="fill:#0da2e6;fill-rule:evenodd"
       id="path33" />
    <path
       d="m 163.2027,148.407 v 60.2777 0.3678 l 32.3031,-32.7299 v -0.0738 -0.0975 z"
       style="fill:#0d8dd6;fill-rule:evenodd"
       id="path34" />
    <defs
       id="defs35">
      <linearGradient
         id="grad22">
        <stop
           offset="0%"
           stop-color="#539740"
           stop-opacity="1.0000"
           id="stop34" />
        <stop
           offset="100%"
           stop-color="#155d37"
           stop-opacity="1.0000"
           id="stop35" />
      </linearGradient>
      <linearGradient
         xlink:href="#grad22"
         id="grad23"
         x1="0"
         y1="0"
         x2="0"
         y2="1"
         gradientTransform="rotate(117,0.5,0.5)"
         gradientUnits="objectBoundingBox" />
    </defs>
    <path
       d="M 457.3269,231.2539 320.297,346.9228 320.0361,433.9336 457.5864,318.9161 Z"
       style="fill:url(#grad23)"
       id="path35" />
    <path
       d="m 380.8105,295.8423 -58.8377,49.6661 c 12.2407,10.6796 25.8947,26.7356 39.376,13.4916 5.3686,-4.8334 15.2112,-13.6344 26.8084,-23.9767 z"
       style="fill:#166339;fill-rule:evenodd"
       id="path36" />
    <defs
       id="defs37">
      <linearGradient
         id="grad24">
        <stop
           offset="0%"
           stop-color="#148849"
           stop-opacity="1.0000"
           id="stop36" />
        <stop
           offset="100%"
           stop-color="#1b6238"
           stop-opacity="1.0000"
           id="stop37" />
      </linearGradient>
      <linearGradient
         xlink:href="#grad24"
         id="grad25"
         x1="0"
         y1="0"
         x2="0"
         y2="1"
         gradientTransform="rotate(-117,0.5,0.5)"
         gradientUnits="objectBoundingBox" />
    </defs>
    <path
       d="m 457.3269,231.2539 -76.1717,64.2979 -0.3447,0.2905 7.3467,39.181 0.0926,-0.0822 c 23.3603,-20.8324 53.8049,-47.8899 69.2022,-61.4396 z"
       style="fill:url(#grad25)"
       id="path37" />
  </g>
</svg>
